<?xml version="1.0" encoding="utf-8"?>
<!-- Generator: Adobe Illustrator 16.0.0, SVG Export Plug-In . SVG Version: 6.00 Build 0)  -->
<!DOCTYPE svg PUBLIC "-//W3C//DTD SVG 1.1//EN" "http://www.w3.org/Graphics/SVG/1.1/DTD/svg11.dtd">
<svg version="1.1" id="swarm-logo" xmlns="http://www.w3.org/2000/svg" xmlns:xlink="http://www.w3.org/1999/xlink" x="0px" y="0px"
	 width="1413.41px" height="1056.764px" viewBox="1658.59 171.38 1413.41 1056.764"
	 enable-background="new 1658.59 171.38 1413.41 1056.764" xml:space="preserve">
<g>
	<path fill="#FFAF03" d="M2182.012,940.104l-230.344-208.211l473.811-439.379l546.761-1.647L2182.012,940.104z M2226.5,979.863
		l151.648-127.054l-1.037,280.765L2226.5,979.863z M1940.186,269.14l206.388,205.565l-205.973,194.683L1940.186,269.14z
		 M1879.799,393.065l-123.639,0.685l125.009-125.018L1879.799,393.065z M3058.531,240.048
		c-197.773,1.018-642.475-6.153-655.799-1.027l-212.098,198.792l-260.287-258.225c0,0-2.035-8.54-22.53-8.198
		c-9.56,0.157-15.378,5.126-15.378,5.126L1665.98,403.993c0,0-8.884,9.559-7.172,20.495c2.396,15.305,18.441,20.496,18.441,20.496
		l203.918,1.025c0,0-4.747,284.586,1.036,296.124c5.802,11.613,502.078,474.439,502.078,474.439s9.336,9.753,19.477,11.271
		c20.496,3.071,25.613-18.44,25.613-18.44l2.045-403.737c0,0,443.683-363.764,627.113-515.411c5.395-4.46,11.612,0.99,13.313-24.585
		C3072.864,250.292,3068.83,239.993,3058.531,240.048L3058.531,240.048z"/>
</g>
</svg>
