<?xml version="1.0" encoding="utf-8"?>
<!-- Generator: Adobe Illustrator 16.0.0, SVG Export Plug-In . SVG Version: 6.00 Build 0)  -->
<!DOCTYPE svg PUBLIC "-//W3C//DTD SVG 1.1//EN" "http://www.w3.org/Graphics/SVG/1.1/DTD/svg11.dtd">
<svg version="1.1" id="swarm-logo" xmlns="http://www.w3.org/2000/svg" xmlns:xlink="http://www.w3.org/1999/xlink" x="0px" y="0px"
	 width="3072px" height="1188.225px" viewBox="0 0 3072 1188.225" enable-background="new 0 0 3072 1188.225" xml:space="preserve">
<g>
	<path fill="#FFFFFF" d="M1741.491,1018.452l-235.285-307.275v458.553h78.197V936.905l157.088,204.455l156.404-204.455v232.824
		h78.882V711.177L1741.491,1018.452z M1213.616,959.954V793.317h70.12c32.356,0,56.628,7.68,72.136,23.039
		c18.867,17.729,22.244,42.555,22.244,60.283c0,17.127-3.377,41.953-22.244,59.674c-15.508,15.357-39.778,23.641-72.136,23.641
		H1213.616z M1408.448,977.683c26.307-25.408,40.463-60.865,40.463-101.043c0-40.777-14.156-76.227-40.463-101.645
		c-20.219-20.08-58.646-43.721-124.712-43.721h-148.317v438.453h78.197v-148.326h57.312l126.072,148.326h88.302l-134.826-158.375
		C1377.45,1003.091,1396.327,989.499,1408.448,977.683L1408.448,977.683z M835.428,1014.315L896.1,880.767l60.673,133.549H835.428z
		 M678.349,1169.729h86.293l42.473-93.965h177.973l42.48,93.965h85.617L896.1,711.177L678.349,1169.729z M358.657,731.274h-86.293
		l229.225,457.951l124.046-264.139l63.115,126.156l39.455-87.729l-61.449-126.471l-43.814-89.225l-40.454,90.4l-82.935,182
		L358.657,731.274z M240.005,962.905c-10.789-8.863-25.612-21.271-37.752-31.904l-83.591-70.322
		c-20.903-17.729-21.569-31.32-18.876-39.584c4.044-12.418,18.876-22.467,36.401-25.408c14.167-2.369,40.454-2.369,66.066,24.807
		l61.348-43.129c-19.542-20.68-42.471-35.457-68.083-44.32c-24.28-7.682-49.892-9.447-74.163-4.729
		c-22.253,3.543-43.147,12.406-59.997,24.814c-18.201,13.594-31.016,30.139-37.086,49.051c-6.07,17.73-5.385,37.227,1.36,55.547
		c6.736,18.912,19.542,36.633,38.418,52.584l61.357,50.818c2.692,2.367,39.094,33.682,61.347,52.002
		c14.157,11.824,29.665,29.545,22.919,49.633c-6.07,17.729-26.963,32.506-52.584,36.643c-14.833,2.941-31.016,1.768-45.849-3.553
		c-18.201-5.896-35.05-17.721-49.208-34.273l-62.031,42.553c23.595,26.584,51.243,44.906,82.925,56.131
		c18.876,6.504,39.103,9.465,59.331,9.465c10.113,0,20.227-0.602,30.331-2.369c54.611-9.455,98.434-43.137,112.591-85.684
		c6.745-20.098,6.07-41.359-1.351-61.457C276.416,999.538,261.584,980.042,240.005,962.905L240.005,962.905z"/>
	<path fill="#FFFFFF" d="M2182.013,769.724l-230.344-208.211l473.811-439.379l546.761-1.647L2182.013,769.724z M2226.501,809.483
		l151.648-127.055l-1.037,280.766L2226.501,809.483z M1940.187,98.76l206.388,205.565l-205.973,194.683L1940.187,98.76z
		 M1879.8,222.685l-123.639,0.685L1881.17,98.352L1879.8,222.685z M3058.532,69.667c-197.773,1.018-642.475-6.153-655.799-1.027
		l-212.098,198.792L1930.349,9.208c0,0-2.035-8.54-22.53-8.198c-9.56,0.157-15.378,5.126-15.378,5.126l-226.459,227.477
		c0,0-8.884,9.559-7.172,20.495c2.396,15.305,18.441,20.496,18.441,20.496l203.918,1.025c0,0-4.747,284.586,1.036,296.124
		c5.802,11.613,502.078,474.439,502.078,474.439s9.336,9.754,19.477,11.271c20.496,3.07,25.613-18.441,25.613-18.441l2.045-403.736
		c0,0,443.683-363.764,627.113-515.412c5.395-4.46,11.612,0.99,13.313-24.585C3072.865,79.912,3068.831,69.613,3058.532,69.667
		L3058.532,69.667z"/>
</g>
</svg>
